<?xml version="1.0" encoding="utf-8"?>
<!-- Generator: Adobe Illustrator 23.0.0, SVG Export Plug-In . SVG Version: 6.00 Build 0)  -->
<svg version="1.1" id="Layer_1" xmlns="http://www.w3.org/2000/svg" xmlns:xlink="http://www.w3.org/1999/xlink" x="0px" y="0px"
	 viewBox="0 0 168 172" style="enable-background:new 0 0 168 172;" xml:space="preserve">
<style type="text/css">
	.st0{clip-path:url(#SVGID_2_);}
	.st1{clip-path:url(#SVGID_4_);fill:url(#SVGID_5_);}
	.st2{clip-path:url(#SVGID_7_);fill:url(#SVGID_8_);}
	.st3{clip-path:url(#SVGID_10_);fill:url(#SVGID_11_);}
	.st4{clip-path:url(#SVGID_13_);}
	.st5{clip-path:url(#SVGID_15_);fill:url(#SVGID_16_);}
	.st6{opacity:0.1;clip-path:url(#SVGID_13_);}
	.st7{opacity:0.1;}
	.st8{clip-path:url(#SVGID_18_);fill:#FFFFFF;}
	.st9{clip-path:url(#SVGID_20_);fill:#FFFFFF;}
	.st10{clip-path:url(#SVGID_22_);fill:#FFFFFF;}
	.st11{clip-path:url(#SVGID_24_);fill:#FFFFFF;}
	.st12{opacity:0.1;clip-path:url(#SVGID_26_);}
	.st13{clip-path:url(#SVGID_28_);fill:#FFFFFF;}
	.st14{clip-path:url(#SVGID_26_);}
	.st15{clip-path:url(#SVGID_30_);fill:url(#SVGID_31_);}
	.st16{clip-path:url(#SVGID_33_);}
	.st17{clip-path:url(#SVGID_35_);fill:url(#SVGID_36_);}
	.st18{clip-path:url(#SVGID_38_);fill:url(#SVGID_39_);}
	.st19{clip-path:url(#SVGID_41_);}
	.st20{clip-path:url(#SVGID_43_);fill:url(#SVGID_44_);}
	.st21{clip-path:url(#SVGID_46_);fill:url(#SVGID_47_);}
	.st22{clip-path:url(#SVGID_49_);fill:url(#SVGID_50_);}
	.st23{clip-path:url(#SVGID_52_);fill:url(#SVGID_53_);}
	.st24{clip-path:url(#SVGID_55_);}
	.st25{opacity:0.15;clip-path:url(#SVGID_57_);}
	.st26{clip-path:url(#SVGID_59_);fill:#FFFFFF;}
	.st27{clip-path:url(#SVGID_57_);fill:#FFFFFF;}
	.st28{clip-path:url(#SVGID_61_);}
	.st29{clip-path:url(#SVGID_63_);}
	.st30{clip-path:url(#SVGID_65_);fill:url(#SVGID_66_);}
	.st31{clip-path:url(#SVGID_68_);fill:url(#SVGID_69_);}
	.st32{clip-path:url(#SVGID_71_);fill:url(#SVGID_72_);}
	.st33{clip-path:url(#SVGID_74_);fill:url(#SVGID_75_);}
	.st34{clip-path:url(#SVGID_77_);fill:url(#SVGID_78_);}
	.st35{clip-path:url(#SVGID_80_);fill:url(#SVGID_81_);}
	.st36{clip-path:url(#SVGID_83_);fill:url(#SVGID_84_);}
	.st37{clip-path:url(#SVGID_86_);fill:url(#SVGID_87_);}
	.st38{clip-path:url(#SVGID_89_);fill:url(#SVGID_90_);}
</style>
<g>
	<g>
		<defs>
			<circle id="SVGID_12_" cx="84.5" cy="87.5" r="77"/>
		</defs>
		<clipPath id="SVGID_2_">
			<use xlink:href="#SVGID_12_"  style="overflow:visible;"/>
		</clipPath>
		<g class="st0">
			<defs>
				<path id="SVGID_14_" d="M-15,126.4v4.6C4.9,96.5,42.2,73.2,84.9,73.2s80,23.3,99.9,57.8v-4.6C164,93.1,127,70.9,84.9,70.9
					C42.7,70.9,5.7,93.1-15,126.4"/>
			</defs>
			<clipPath id="SVGID_4_">
				<use xlink:href="#SVGID_14_"  style="overflow:visible;"/>
			</clipPath>
			
				<linearGradient id="SVGID_5_" gradientUnits="userSpaceOnUse" x1="-591.7528" y1="1040.8438" x2="-591.2535" y2="1040.8438" gradientTransform="matrix(0 470.5882 470.5882 0 -489723.9063 278542.75)">
				<stop  offset="0" style="stop-color:#FFCC05"/>
				<stop  offset="0.5" style="stop-color:#EC1968"/>
				<stop  offset="1" style="stop-color:#B8529E"/>
			</linearGradient>
			<rect x="-15" y="70.9" class="st1" width="199.7" height="60.1"/>
		</g>
		<g style="opacity:0.1;clip-path:url(#SVGID_2_);">
			<defs>
				<path id="SVGID_17_" class="st7" d="M-15,139.4v4.6c19.9-34.5,57.2-57.8,99.9-57.8s80,23.3,99.9,57.8v-4.6
					C164,106.1,127,83.9,84.9,83.9C42.7,83.9,5.7,106.1-15,139.4"/>
			</defs>
			<use xlink:href="#SVGID_17_"  style="overflow:visible;fill:#FFFFFF;"/>
			<clipPath id="SVGID_7_">
				<use xlink:href="#SVGID_17_"  style="overflow:visible;"/>
			</clipPath>
			<rect x="-15" y="83.9" style="clip-path:url(#SVGID_7_);fill:#FFFFFF;" width="199.7" height="60.1"/>
		</g>
		<g style="opacity:0.1;clip-path:url(#SVGID_2_);">
			<defs>
				<path id="SVGID_19_" class="st7" d="M-15,155.4v4.6c19.9-34.5,57.2-57.8,99.9-57.8s80,23.3,99.9,57.8v-4.6
					C164,122.1,127,99.9,84.9,99.9C42.7,99.9,5.7,122.1-15,155.4"/>
			</defs>
			<use xlink:href="#SVGID_19_"  style="overflow:visible;fill:#FFFFFF;"/>
			<clipPath id="SVGID_8_">
				<use xlink:href="#SVGID_19_"  style="overflow:visible;"/>
			</clipPath>
			<rect x="-15" y="99.9" style="clip-path:url(#SVGID_8_);fill:#FFFFFF;" width="199.7" height="60.1"/>
		</g>
		<g style="opacity:0.1;clip-path:url(#SVGID_2_);">
			<defs>
				<path id="SVGID_21_" class="st7" d="M-15,175.4v4.6c19.9-34.5,57.2-57.8,99.9-57.8s80,23.3,99.9,57.8v-4.6
					c-20.7-33.4-57.7-55.6-99.9-55.6C42.7,119.9,5.7,142.1-15,175.4"/>
			</defs>
			<use xlink:href="#SVGID_21_"  style="overflow:visible;fill:#FFFFFF;"/>
			<clipPath id="SVGID_10_">
				<use xlink:href="#SVGID_21_"  style="overflow:visible;"/>
			</clipPath>
			<rect x="-15" y="119.9" style="clip-path:url(#SVGID_10_);fill:#FFFFFF;" width="199.7" height="60.1"/>
		</g>
		<g style="opacity:0.1;clip-path:url(#SVGID_2_);">
			<defs>
				<path id="SVGID_23_" class="st7" d="M-15,197.4v4.6c19.9-34.5,57.2-57.8,99.9-57.8s80,23.3,99.9,57.8v-4.6
					c-20.7-33.4-57.7-55.6-99.9-55.6C42.7,141.9,5.7,164.1-15,197.4"/>
			</defs>
			<use xlink:href="#SVGID_23_"  style="overflow:visible;fill:#FFFFFF;"/>
			<clipPath id="SVGID_11_">
				<use xlink:href="#SVGID_23_"  style="overflow:visible;"/>
			</clipPath>
			<rect x="-15" y="141.9" style="clip-path:url(#SVGID_11_);fill:#FFFFFF;" width="199.7" height="60.1"/>
		</g>
		<use xlink:href="#SVGID_12_"  style="overflow:visible;fill:none;stroke:#FFFFFF;stroke-miterlimit:10;"/>
	</g>
</g>
<g>
	<defs>
		<circle id="SVGID_25_" cx="357.5" cy="87.5" r="77"/>
	</defs>
	<clipPath id="SVGID_13_">
		<use xlink:href="#SVGID_25_"  style="overflow:visible;"/>
	</clipPath>
	<g class="st6">
		<g>
			<defs>
				<rect id="SVGID_27_" x="162.4" y="-208.2" width="389.6" height="389.6"/>
			</defs>
			<clipPath id="SVGID_15_">
				<use xlink:href="#SVGID_27_"  style="overflow:visible;"/>
			</clipPath>
			<path style="clip-path:url(#SVGID_15_);fill:#FFFFFF;" d="M357.2-208.2c-107.6,0-194.8,87.2-194.8,194.8
				c0,107.6,87.2,194.8,194.8,194.8S552,94.2,552-13.4C552-121,464.8-208.2,357.2-208.2 M357.2,178.8C251,178.8,165,92.7,165-13.4
				c0-106.2,86.1-192.2,192.2-192.2s192.2,86.1,192.2,192.2C549.4,92.7,463.3,178.8,357.2,178.8"/>
		</g>
	</g>
	<use xlink:href="#SVGID_25_"  style="overflow:visible;fill:none;stroke:#FFFFFF;stroke-miterlimit:10;"/>
</g>
</svg>
