<?xml version="1.0" encoding="utf-8"?>
<!-- Generator: Adobe Illustrator 23.0.0, SVG Export Plug-In . SVG Version: 6.00 Build 0)  -->
<svg version="1.1" id="Layer_1" xmlns="http://www.w3.org/2000/svg" xmlns:xlink="http://www.w3.org/1999/xlink" x="0px" y="0px"
	 viewBox="0 0 168 172" style="enable-background:new 0 0 168 172;" xml:space="preserve">
<style type="text/css">
	.st0{clip-path:url(#SVGID_2_);}
	.st1{clip-path:url(#SVGID_4_);fill:url(#SVGID_5_);}
	.st2{clip-path:url(#SVGID_7_);fill:url(#SVGID_8_);}
	.st3{clip-path:url(#SVGID_10_);fill:url(#SVGID_11_);}
	.st4{clip-path:url(#SVGID_13_);}
	.st5{clip-path:url(#SVGID_15_);fill:url(#SVGID_16_);}
	.st6{opacity:0.1;clip-path:url(#SVGID_13_);}
	.st7{opacity:0.1;}
	.st8{clip-path:url(#SVGID_18_);fill:#FFFFFF;}
	.st9{clip-path:url(#SVGID_20_);fill:#FFFFFF;}
	.st10{clip-path:url(#SVGID_22_);fill:#FFFFFF;}
	.st11{clip-path:url(#SVGID_24_);fill:#FFFFFF;}
	.st12{opacity:0.1;clip-path:url(#SVGID_26_);}
	.st13{clip-path:url(#SVGID_28_);fill:#FFFFFF;}
	.st14{clip-path:url(#SVGID_26_);}
	.st15{clip-path:url(#SVGID_30_);fill:url(#SVGID_31_);}
	.st16{clip-path:url(#SVGID_33_);}
	.st17{clip-path:url(#SVGID_35_);fill:url(#SVGID_36_);}
	.st18{clip-path:url(#SVGID_38_);fill:url(#SVGID_39_);}
	.st19{clip-path:url(#SVGID_41_);}
	.st20{clip-path:url(#SVGID_43_);fill:url(#SVGID_44_);}
	.st21{clip-path:url(#SVGID_46_);fill:url(#SVGID_47_);}
	.st22{clip-path:url(#SVGID_49_);fill:url(#SVGID_50_);}
	.st23{clip-path:url(#SVGID_52_);fill:url(#SVGID_53_);}
	.st24{clip-path:url(#SVGID_55_);}
	.st25{opacity:0.15;clip-path:url(#SVGID_57_);}
	.st26{clip-path:url(#SVGID_59_);fill:#FFFFFF;}
	.st27{clip-path:url(#SVGID_57_);fill:#FFFFFF;}
	.st28{clip-path:url(#SVGID_61_);}
	.st29{clip-path:url(#SVGID_63_);}
	.st30{clip-path:url(#SVGID_65_);fill:url(#SVGID_66_);}
	.st31{clip-path:url(#SVGID_68_);fill:url(#SVGID_69_);}
	.st32{clip-path:url(#SVGID_71_);fill:url(#SVGID_72_);}
	.st33{clip-path:url(#SVGID_74_);fill:url(#SVGID_75_);}
	.st34{clip-path:url(#SVGID_77_);fill:url(#SVGID_78_);}
	.st35{clip-path:url(#SVGID_80_);fill:url(#SVGID_81_);}
	.st36{clip-path:url(#SVGID_83_);fill:url(#SVGID_84_);}
	.st37{clip-path:url(#SVGID_86_);fill:url(#SVGID_87_);}
	.st38{clip-path:url(#SVGID_89_);fill:url(#SVGID_90_);}
</style>
<g>
	<defs>
		<circle id="SVGID_54_" cx="85.5" cy="85.5" r="77"/>
	</defs>
	<clipPath id="SVGID_2_">
		<use xlink:href="#SVGID_54_"  style="overflow:visible;"/>
	</clipPath>
	<g class="st0">
		<defs>
			<rect id="SVGID_56_" x="-31.1" y="8" width="233.9" height="155"/>
		</defs>
		<clipPath id="SVGID_4_">
			<use xlink:href="#SVGID_56_"  style="overflow:visible;"/>
		</clipPath>
		<g style="opacity:0.15;clip-path:url(#SVGID_4_);">
			<g>
				<defs>
					<rect id="SVGID_58_" x="-38" y="-38.4" width="247.7" height="247.7"/>
				</defs>
				<clipPath id="SVGID_5_">
					<use xlink:href="#SVGID_58_"  style="overflow:visible;"/>
				</clipPath>
				<path style="clip-path:url(#SVGID_5_);fill:#FFFFFF;" d="M85.8,30.4c-30.4,0-55,24.6-55,55c0,30.4,24.6,55,55,55
					c30.4,0,55-24.6,55-55C140.9,55.1,116.2,30.4,85.8,30.4 M85.8,137.8c-28.9,0-52.3-23.4-52.3-52.3s23.4-52.3,52.3-52.3
					c28.9,0,52.3,23.4,52.3,52.3S114.7,137.8,85.8,137.8"/>
				<path style="clip-path:url(#SVGID_5_);fill:#FFFFFF;" d="M85.8,16.7c-38,0-68.8,30.8-68.8,68.8c0,38,30.8,68.8,68.8,68.8
					c38,0,68.8-30.8,68.8-68.8C154.6,47.5,123.8,16.7,85.8,16.7 M85.8,151.5c-36.5,0-66.1-29.6-66.1-66.1s29.6-66.1,66.1-66.1
					c36.5,0,66.1,29.6,66.1,66.1S122.3,151.5,85.8,151.5"/>
				<path style="clip-path:url(#SVGID_5_);fill:#FFFFFF;" d="M85.8,2.9c-45.6,0-82.6,37-82.6,82.6c0,45.6,37,82.6,82.6,82.6
					c45.6,0,82.6-37,82.6-82.6C168.4,39.9,131.4,2.9,85.8,2.9 M85.8,165.3C41.7,165.3,6,129.6,6,85.5S41.7,5.7,85.8,5.7
					c44.1,0,79.8,35.7,79.8,79.8S129.9,165.3,85.8,165.3"/>
				<path style="clip-path:url(#SVGID_5_);fill:#FFFFFF;" d="M85.8-10.8c-53.2,0-96.3,43.1-96.3,96.3s43.1,96.3,96.3,96.3
					c53.2,0,96.3-43.1,96.3-96.3S139-10.8,85.8-10.8 M85.8,179.1c-51.7,0-93.6-41.9-93.6-93.6S34.1-8.1,85.8-8.1
					c51.7,0,93.6,41.9,93.6,93.6S137.5,179.1,85.8,179.1"/>
				<path style="clip-path:url(#SVGID_5_);fill:#FFFFFF;" d="M85.8-24.6C25-24.6-24.3,24.7-24.3,85.5c0,60.8,49.3,110.1,110.1,110.1
					c60.8,0,110.1-49.3,110.1-110.1C195.9,24.7,146.6-24.6,85.8-24.6 M85.8,192.8c-59.3,0-107.3-48.1-107.3-107.3
					c0-59.3,48.1-107.3,107.3-107.3c59.3,0,107.3,48.1,107.3,107.3C193.2,144.8,145.1,192.8,85.8,192.8"/>
				<path style="clip-path:url(#SVGID_5_);fill:#FFFFFF;" d="M85.8-38.4C17.4-38.4-38,17.1-38,85.5c0,68.4,55.4,123.8,123.8,123.8
					c68.4,0,123.8-55.4,123.8-123.8C209.7,17.1,154.2-38.4,85.8-38.4 M85.8,206.4C19,206.4-35.1,152.3-35.1,85.5S19-35.4,85.8-35.4
					c66.8,0,120.9,54.1,120.9,120.9S152.6,206.4,85.8,206.4"/>
			</g>
		</g>
		<path style="clip-path:url(#SVGID_4_);fill:#FFFFFF;" d="M85.8,44.2c-22.8,0-41.3,18.5-41.3,41.3c0,22.8,18.5,41.3,41.3,41.3
			c22.8,0,41.3-18.5,41.3-41.3C127.1,62.7,108.6,44.2,85.8,44.2 M85.8,124c-21.3,0-38.5-17.2-38.5-38.5S64.5,47,85.8,47
			c21.3,0,38.5,17.2,38.5,38.5S107.1,124,85.8,124"/>
	</g>
	<use xlink:href="#SVGID_54_"  style="overflow:visible;fill:none;stroke:#FFFFFF;stroke-miterlimit:10;"/>
</g>
</svg>
