<?xml version="1.0" encoding="utf-8"?>
<!-- Generator: Adobe Illustrator 23.0.0, SVG Export Plug-In . SVG Version: 6.00 Build 0)  -->
<svg version="1.1" id="Layer_1" xmlns="http://www.w3.org/2000/svg" xmlns:xlink="http://www.w3.org/1999/xlink" x="0px" y="0px"
	 viewBox="0 0 168 172" style="enable-background:new 0 0 168 172;" xml:space="preserve">
<style type="text/css">
	.st0{clip-path:url(#SVGID_2_);}
	.st1{clip-path:url(#SVGID_4_);fill:url(#SVGID_5_);}
	.st2{clip-path:url(#SVGID_7_);fill:url(#SVGID_8_);}
	.st3{clip-path:url(#SVGID_10_);fill:url(#SVGID_11_);}
	.st4{clip-path:url(#SVGID_13_);}
	.st5{clip-path:url(#SVGID_15_);fill:url(#SVGID_16_);}
	.st6{opacity:0.1;clip-path:url(#SVGID_13_);}
	.st7{opacity:0.1;}
	.st8{clip-path:url(#SVGID_18_);fill:#FFFFFF;}
	.st9{clip-path:url(#SVGID_20_);fill:#FFFFFF;}
	.st10{clip-path:url(#SVGID_22_);fill:#FFFFFF;}
	.st11{clip-path:url(#SVGID_24_);fill:#FFFFFF;}
	.st12{opacity:0.1;clip-path:url(#SVGID_26_);}
	.st13{clip-path:url(#SVGID_28_);fill:#FFFFFF;}
	.st14{clip-path:url(#SVGID_26_);}
	.st15{clip-path:url(#SVGID_30_);fill:url(#SVGID_31_);}
	.st16{clip-path:url(#SVGID_33_);}
	.st17{clip-path:url(#SVGID_35_);fill:url(#SVGID_36_);}
	.st18{clip-path:url(#SVGID_38_);fill:url(#SVGID_39_);}
	.st19{clip-path:url(#SVGID_41_);}
	.st20{clip-path:url(#SVGID_43_);fill:url(#SVGID_44_);}
	.st21{clip-path:url(#SVGID_46_);fill:url(#SVGID_47_);}
	.st22{clip-path:url(#SVGID_49_);fill:url(#SVGID_50_);}
	.st23{clip-path:url(#SVGID_52_);fill:url(#SVGID_53_);}
	.st24{clip-path:url(#SVGID_55_);}
	.st25{opacity:0.15;clip-path:url(#SVGID_57_);}
	.st26{clip-path:url(#SVGID_59_);fill:#FFFFFF;}
	.st27{clip-path:url(#SVGID_57_);fill:#FFFFFF;}
	.st28{clip-path:url(#SVGID_61_);}
	.st29{clip-path:url(#SVGID_63_);}
	.st30{clip-path:url(#SVGID_65_);fill:url(#SVGID_66_);}
	.st31{clip-path:url(#SVGID_68_);fill:url(#SVGID_69_);}
	.st32{clip-path:url(#SVGID_71_);fill:url(#SVGID_72_);}
	.st33{clip-path:url(#SVGID_74_);fill:url(#SVGID_75_);}
	.st34{clip-path:url(#SVGID_77_);fill:url(#SVGID_78_);}
	.st35{clip-path:url(#SVGID_80_);fill:url(#SVGID_81_);}
	.st36{clip-path:url(#SVGID_83_);fill:url(#SVGID_84_);}
	.st37{clip-path:url(#SVGID_86_);fill:url(#SVGID_87_);}
	.st38{clip-path:url(#SVGID_89_);fill:url(#SVGID_90_);}
</style>
<g>
	<defs>
		<circle id="SVGID_60_" cx="84.5" cy="85.5" r="77"/>
	</defs>
	<clipPath id="SVGID_2_">
		<use xlink:href="#SVGID_60_"  style="overflow:visible;"/>
	</clipPath>
	<g class="st0">
		<defs>
			<rect id="SVGID_62_" x="5.5" y="6" width="179.5" height="179.8"/>
		</defs>
		<clipPath id="SVGID_4_">
			<use xlink:href="#SVGID_62_"  style="overflow:visible;"/>
		</clipPath>
		<g style="clip-path:url(#SVGID_4_);">
			<defs>
				<path id="SVGID_64_" d="M34.9,140.9c0,8.8-7.1,15.9-15.9,15.9c-8.8,0-15.9-7.1-15.9-15.9c0-8.8,7.1-15.9,15.9-15.9
					C27.8,125.1,34.9,132.2,34.9,140.9 M38.1,140.9c0-10.5-8.5-19-19-19c-10.5,0-19,8.5-19,19c0,10.5,8.5,19,19,19
					C29.6,160,38.1,151.5,38.1,140.9"/>
			</defs>
			<clipPath id="SVGID_5_">
				<use xlink:href="#SVGID_64_"  style="overflow:visible;"/>
			</clipPath>
			
				<linearGradient id="SVGID_7_" gradientUnits="userSpaceOnUse" x1="-1033.1056" y1="708.3639" x2="-1032.4315" y2="708.3639" gradientTransform="matrix(0 -56.4706 -56.4706 0 40020.7773 -58180.0977)">
				<stop  offset="0" style="stop-color:#FFCB04"/>
				<stop  offset="0.5" style="stop-color:#E2126E"/>
				<stop  offset="1" style="stop-color:#C31980"/>
			</linearGradient>
			<rect x="0" y="121.9" style="clip-path:url(#SVGID_5_);fill:url(#SVGID_7_);" width="38.1" height="38.1"/>
		</g>
		<g style="clip-path:url(#SVGID_4_);">
			<defs>
				<path id="SVGID_67_" d="M94.7,140.9c0,8.8-7.1,15.9-15.9,15.9c-8.8,0-15.9-7.1-15.9-15.9c0-8.8,7.1-15.9,15.9-15.9
					C87.6,125.1,94.7,132.2,94.7,140.9 M97.8,140.9c0-10.5-8.5-19-19-19c-10.5,0-19,8.5-19,19c0,10.5,8.5,19,19,19
					C89.3,160,97.8,151.5,97.8,140.9"/>
			</defs>
			<clipPath id="SVGID_8_">
				<use xlink:href="#SVGID_67_"  style="overflow:visible;"/>
			</clipPath>
			
				<linearGradient id="SVGID_10_" gradientUnits="userSpaceOnUse" x1="-1042.5685" y1="681.1245" x2="-1041.8944" y2="681.1245" gradientTransform="matrix(0 56.4706 56.4706 0 -38384.6914 58996.375)">
				<stop  offset="0" style="stop-color:#FFCB04"/>
				<stop  offset="0.5" style="stop-color:#E2126E"/>
				<stop  offset="1" style="stop-color:#C31980"/>
			</linearGradient>
			<rect x="59.8" y="121.9" style="clip-path:url(#SVGID_8_);fill:url(#SVGID_10_);" width="38.1" height="38.1"/>
		</g>
		<g style="clip-path:url(#SVGID_4_);">
			<defs>
				<path id="SVGID_70_" d="M154.4,140.9c0,8.8-7.1,15.9-15.9,15.9c-8.8,0-15.9-7.1-15.9-15.9c0-8.8,7.1-15.9,15.9-15.9
					C147.3,125.1,154.4,132.2,154.4,140.9 M157.6,140.9c0-10.5-8.5-19-19-19s-19,8.5-19,19c0,10.5,8.5,19,19,19
					S157.6,151.5,157.6,140.9"/>
			</defs>
			<clipPath id="SVGID_11_">
				<use xlink:href="#SVGID_70_"  style="overflow:visible;"/>
			</clipPath>
			
				<linearGradient id="SVGID_13_" gradientUnits="userSpaceOnUse" x1="-1033.1056" y1="709.3872" x2="-1032.4315" y2="709.3872" gradientTransform="matrix(0 -56.4706 -56.4706 0 40198.0781 -58180.0977)">
				<stop  offset="0" style="stop-color:#FFCB04"/>
				<stop  offset="0.5" style="stop-color:#E2126E"/>
				<stop  offset="1" style="stop-color:#C31980"/>
			</linearGradient>
			<rect x="119.5" y="121.9" style="clip-path:url(#SVGID_11_);fill:url(#SVGID_13_);" width="38.1" height="38.1"/>
		</g>
		<g style="clip-path:url(#SVGID_4_);">
			<defs>
				<path id="SVGID_73_" d="M94.7,23.9c0,8.8-7.1,15.9-15.9,15.9c-8.8,0-15.9-7.1-15.9-15.9c0-8.8,7.1-15.9,15.9-15.9
					C87.6,8.1,94.7,15.2,94.7,23.9 M97.8,23.9c0-10.5-8.5-19-19-19c-10.5,0-19,8.5-19,19c0,10.5,8.5,19,19,19
					C89.3,43,97.8,34.5,97.8,23.9"/>
			</defs>
			<clipPath id="SVGID_15_">
				<use xlink:href="#SVGID_73_"  style="overflow:visible;"/>
			</clipPath>
			
				<linearGradient id="SVGID_16_" gradientUnits="userSpaceOnUse" x1="-1044.6404" y1="681.1245" x2="-1043.9663" y2="681.1245" gradientTransform="matrix(0 56.4706 56.4706 0 -38384.6914 58996.375)">
				<stop  offset="0" style="stop-color:#FFCB04"/>
				<stop  offset="0.5" style="stop-color:#E2126E"/>
				<stop  offset="1" style="stop-color:#C31980"/>
			</linearGradient>
			<rect x="59.8" y="4.9" class="st5" width="38.1" height="38.1"/>
		</g>
		<g style="clip-path:url(#SVGID_4_);">
			<defs>
				<path id="SVGID_76_" d="M154.4,23.9c0,8.8-7.1,15.9-15.9,15.9c-8.8,0-15.9-7.1-15.9-15.9c0-8.8,7.1-15.9,15.9-15.9
					C147.3,8.1,154.4,15.2,154.4,23.9 M157.6,23.9c0-10.5-8.5-19-19-19s-19,8.5-19,19c0,10.5,8.5,19,19,19S157.6,34.5,157.6,23.9"/>
			</defs>
			<clipPath id="SVGID_18_">
				<use xlink:href="#SVGID_76_"  style="overflow:visible;"/>
			</clipPath>
			
				<linearGradient id="SVGID_20_" gradientUnits="userSpaceOnUse" x1="-1031.0337" y1="709.3872" x2="-1030.3596" y2="709.3872" gradientTransform="matrix(0 -56.4706 -56.4706 0 40198.0781 -58180.0977)">
				<stop  offset="0" style="stop-color:#FFCB04"/>
				<stop  offset="0.5" style="stop-color:#E2126E"/>
				<stop  offset="1" style="stop-color:#C31980"/>
			</linearGradient>
			<rect x="119.5" y="4.9" style="clip-path:url(#SVGID_18_);fill:url(#SVGID_20_);" width="38.1" height="38.1"/>
		</g>
		<g style="clip-path:url(#SVGID_4_);">
			<defs>
				<path id="SVGID_79_" d="M34.9,81.2c0,8.8-7.1,15.9-15.9,15.9c-8.8,0-15.9-7.1-15.9-15.9c0-8.8,7.1-15.9,15.9-15.9
					C27.8,65.3,34.9,72.4,34.9,81.2 M38.1,81.2c0-10.5-8.5-19-19-19c-10.5,0-19,8.5-19,19c0,10.5,8.5,19,19,19
					C29.6,100.2,38.1,91.7,38.1,81.2"/>
			</defs>
			<clipPath id="SVGID_22_">
				<use xlink:href="#SVGID_79_"  style="overflow:visible;"/>
			</clipPath>
			
				<linearGradient id="SVGID_24_" gradientUnits="userSpaceOnUse" x1="-1042.0568" y1="681.6361" x2="-1041.3827" y2="681.6361" gradientTransform="matrix(0 56.4706 56.4706 0 -38473.3398 58907.7227)">
				<stop  offset="0" style="stop-color:#FFCB04"/>
				<stop  offset="0.5" style="stop-color:#E2126E"/>
				<stop  offset="1" style="stop-color:#C31980"/>
			</linearGradient>
			<rect x="0" y="62.2" style="clip-path:url(#SVGID_22_);fill:url(#SVGID_24_);" width="38.1" height="38.1"/>
		</g>
		<g style="clip-path:url(#SVGID_4_);">
			<defs>
				<path id="SVGID_82_" d="M94.7,81.2c0,8.8-7.1,15.9-15.9,15.9c-8.8,0-15.9-7.1-15.9-15.9c0-8.8,7.1-15.9,15.9-15.9
					C87.6,65.3,94.7,72.4,94.7,81.2 M97.8,81.2c0-10.5-8.5-19-19-19c-10.5,0-19,8.5-19,19c0,10.5,8.5,19,19,19
					C89.3,100.2,97.8,91.7,97.8,81.2"/>
			</defs>
			<clipPath id="SVGID_26_">
				<use xlink:href="#SVGID_82_"  style="overflow:visible;"/>
			</clipPath>
			
				<linearGradient id="SVGID_28_" gradientUnits="userSpaceOnUse" x1="-1033.6173" y1="708.8755" x2="-1032.9432" y2="708.8755" gradientTransform="matrix(0 -56.4706 -56.4706 0 40109.4297 -58268.75)">
				<stop  offset="0" style="stop-color:#FFCB04"/>
				<stop  offset="0.5" style="stop-color:#E2126E"/>
				<stop  offset="1" style="stop-color:#C31980"/>
			</linearGradient>
			<rect x="59.8" y="62.2" style="clip-path:url(#SVGID_26_);fill:url(#SVGID_28_);" width="38.1" height="38.1"/>
		</g>
		<g style="clip-path:url(#SVGID_4_);">
			<defs>
				<path id="SVGID_85_" d="M154.4,81.2c0,8.8-7.1,15.9-15.9,15.9c-8.8,0-15.9-7.1-15.9-15.9c0-8.8,7.1-15.9,15.9-15.9
					C147.3,65.3,154.4,72.4,154.4,81.2 M157.6,81.2c0-10.5-8.5-19-19-19s-19,8.5-19,19c0,10.5,8.5,19,19,19S157.6,91.7,157.6,81.2"
					/>
			</defs>
			<clipPath id="SVGID_30_">
				<use xlink:href="#SVGID_85_"  style="overflow:visible;"/>
			</clipPath>
			
				<linearGradient id="SVGID_31_" gradientUnits="userSpaceOnUse" x1="-1042.0568" y1="680.6128" x2="-1041.3827" y2="680.6128" gradientTransform="matrix(0 56.4706 56.4706 0 -38296.0391 58907.7227)">
				<stop  offset="0" style="stop-color:#FFCB04"/>
				<stop  offset="0.5" style="stop-color:#E2126E"/>
				<stop  offset="1" style="stop-color:#C31980"/>
			</linearGradient>
			<rect x="119.5" y="62.2" class="st15" width="38.1" height="38.1"/>
		</g>
		<g style="clip-path:url(#SVGID_4_);">
			<defs>
				<path id="SVGID_88_" d="M38.1,21.4c0-0.1,0-0.3,0-0.4h-3.2c0,0.1,0,0.3,0,0.4c0,8.8-7.1,15.9-15.9,15.9
					c-8.8,0-15.9-7.1-15.9-15.9c0-0.1,0-0.3,0-0.4H0c0,0.1,0,0.3,0,0.4c0,10.5,8.5,19,19,19C29.6,40.5,38.1,31.9,38.1,21.4"/>
			</defs>
			<clipPath id="SVGID_33_">
				<use xlink:href="#SVGID_88_"  style="overflow:visible;"/>
			</clipPath>
			
				<linearGradient id="SVGID_35_" gradientUnits="userSpaceOnUse" x1="-1034.1289" y1="708.3639" x2="-1033.4548" y2="708.3639" gradientTransform="matrix(0 -56.4706 -56.4706 0 40020.7773 -58357.4023)">
				<stop  offset="0" style="stop-color:#FFCB04"/>
				<stop  offset="0.5" style="stop-color:#E2126E"/>
				<stop  offset="1" style="stop-color:#C31980"/>
			</linearGradient>
			<rect x="0" y="21" style="clip-path:url(#SVGID_33_);fill:url(#SVGID_35_);" width="38.1" height="19.5"/>
		</g>
	</g>
	<use xlink:href="#SVGID_60_"  style="overflow:visible;fill:none;stroke:#FFFFFF;stroke-miterlimit:10;"/>
</g>
</svg>
