<?xml version="1.0" encoding="utf-8"?>
<!-- Generator: Adobe Illustrator 23.0.0, SVG Export Plug-In . SVG Version: 6.00 Build 0)  -->
<svg version="1.1" id="Layer_1" xmlns="http://www.w3.org/2000/svg" xmlns:xlink="http://www.w3.org/1999/xlink" x="0px" y="0px"
	 viewBox="0 0 168 172" style="enable-background:new 0 0 168 172;" xml:space="preserve">
<style type="text/css">
	.st0{clip-path:url(#SVGID_2_);}
	.st1{clip-path:url(#SVGID_4_);fill:url(#SVGID_5_);}
	.st2{clip-path:url(#SVGID_7_);fill:url(#SVGID_8_);}
	.st3{clip-path:url(#SVGID_10_);fill:url(#SVGID_11_);}
	.st4{clip-path:url(#SVGID_13_);}
	.st5{clip-path:url(#SVGID_15_);fill:url(#SVGID_16_);}
	.st6{opacity:0.1;clip-path:url(#SVGID_13_);}
	.st7{opacity:0.1;}
	.st8{clip-path:url(#SVGID_18_);fill:#FFFFFF;}
	.st9{clip-path:url(#SVGID_20_);fill:#FFFFFF;}
	.st10{clip-path:url(#SVGID_22_);fill:#FFFFFF;}
	.st11{clip-path:url(#SVGID_24_);fill:#FFFFFF;}
	.st12{opacity:0.1;clip-path:url(#SVGID_26_);}
	.st13{clip-path:url(#SVGID_28_);fill:#FFFFFF;}
	.st14{clip-path:url(#SVGID_26_);}
	.st15{clip-path:url(#SVGID_30_);fill:url(#SVGID_31_);}
	.st16{clip-path:url(#SVGID_33_);}
	.st17{clip-path:url(#SVGID_35_);fill:url(#SVGID_36_);}
	.st18{clip-path:url(#SVGID_38_);fill:url(#SVGID_39_);}
	.st19{clip-path:url(#SVGID_41_);}
	.st20{clip-path:url(#SVGID_43_);fill:url(#SVGID_44_);}
	.st21{clip-path:url(#SVGID_46_);fill:url(#SVGID_47_);}
	.st22{clip-path:url(#SVGID_49_);fill:url(#SVGID_50_);}
	.st23{clip-path:url(#SVGID_52_);fill:url(#SVGID_53_);}
	.st24{clip-path:url(#SVGID_55_);}
	.st25{opacity:0.15;clip-path:url(#SVGID_57_);}
	.st26{clip-path:url(#SVGID_59_);fill:#FFFFFF;}
	.st27{clip-path:url(#SVGID_57_);fill:#FFFFFF;}
	.st28{clip-path:url(#SVGID_61_);}
	.st29{clip-path:url(#SVGID_63_);}
	.st30{clip-path:url(#SVGID_65_);fill:url(#SVGID_66_);}
	.st31{clip-path:url(#SVGID_68_);fill:url(#SVGID_69_);}
	.st32{clip-path:url(#SVGID_71_);fill:url(#SVGID_72_);}
	.st33{clip-path:url(#SVGID_74_);fill:url(#SVGID_75_);}
	.st34{clip-path:url(#SVGID_77_);fill:url(#SVGID_78_);}
	.st35{clip-path:url(#SVGID_80_);fill:url(#SVGID_81_);}
	.st36{clip-path:url(#SVGID_83_);fill:url(#SVGID_84_);}
	.st37{clip-path:url(#SVGID_86_);fill:url(#SVGID_87_);}
	.st38{clip-path:url(#SVGID_89_);fill:url(#SVGID_90_);}
</style>
<g>
	<defs>
		<circle id="SVGID_40_" cx="83.5" cy="85.5" r="77"/>
	</defs>
	<clipPath id="SVGID_2_">
		<use xlink:href="#SVGID_40_"  style="overflow:visible;"/>
	</clipPath>
	<g class="st0">
		<g>
			<defs>
				<path id="SVGID_42_" d="M36.7,90.5c0-12.9,10.5-23.4,23.4-23.4c12.9,0,23.4,10.5,23.4,23.4c0,12.9-10.5,23.4-23.4,23.4
					C47.1,113.9,36.7,103.4,36.7,90.5 M34.6,90.5c0,14.1,11.4,25.4,25.4,25.4c14.1,0,25.4-11.4,25.4-25.4S74.1,65.1,60.1,65.1
					C46,65.1,34.6,76.4,34.6,90.5"/>
			</defs>
			<clipPath id="SVGID_4_">
				<use xlink:href="#SVGID_42_"  style="overflow:visible;"/>
			</clipPath>
			
				<linearGradient id="SVGID_5_" gradientUnits="userSpaceOnUse" x1="-390.3369" y1="694.813" x2="-389.9044" y2="694.813" gradientTransform="matrix(-117.6471 0 0 117.6471 -45836.4766 -81652.2188)">
				<stop  offset="0" style="stop-color:#FFCC05"/>
				<stop  offset="0.5" style="stop-color:#EC1968"/>
				<stop  offset="1" style="stop-color:#B8529E"/>
			</linearGradient>
			<rect x="34.6" y="65.1" class="st1" width="50.9" height="50.9"/>
		</g>
		<g>
			<defs>
				<path id="SVGID_45_" d="M132.3,90.5c0,14.1,11.4,25.4,25.4,25.4c4.8,0,9.4-1.4,13.2-3.7v-2.4c-3.8,2.6-8.3,4.1-13.2,4.1
					c-12.9,0-23.4-10.5-23.4-23.4c0-12.9,10.5-23.4,23.4-23.4c4.9,0,9.5,1.5,13.2,4.1v-2.4c-3.9-2.4-8.4-3.7-13.2-3.7
					C143.7,65.1,132.3,76.4,132.3,90.5"/>
			</defs>
			<clipPath id="SVGID_7_">
				<use xlink:href="#SVGID_45_"  style="overflow:visible;"/>
			</clipPath>
			
				<linearGradient id="SVGID_8_" gradientUnits="userSpaceOnUse" x1="-389.2473" y1="694.813" x2="-388.8148" y2="694.813" gradientTransform="matrix(-117.6471 0 0 117.6471 -45610.5938 -81652.2188)">
				<stop  offset="0" style="stop-color:#FFCC05"/>
				<stop  offset="0.5" style="stop-color:#EC1968"/>
				<stop  offset="1" style="stop-color:#B8529E"/>
			</linearGradient>
			<rect x="132.3" y="65.1" class="st2" width="38.7" height="50.9"/>
		</g>
		<g>
			<defs>
				<path id="SVGID_48_" d="M-2,68.8v2.4c3.8-2.6,8.3-4.1,13.2-4.1c12.9,0,23.4,10.5,23.4,23.4c0,12.9-10.5,23.4-23.4,23.4
					c-4.9,0-9.5-1.5-13.2-4.1v2.4c3.9,2.4,8.4,3.7,13.2,3.7c14.1,0,25.4-11.4,25.4-25.4S25.3,65.1,11.2,65.1
					C6.4,65.1,1.9,66.4-2,68.8"/>
			</defs>
			<clipPath id="SVGID_10_">
				<use xlink:href="#SVGID_48_"  style="overflow:visible;"/>
			</clipPath>
			
				<linearGradient id="SVGID_11_" gradientUnits="userSpaceOnUse" x1="-408.5508" y1="695.187" x2="-408.1183" y2="695.187" gradientTransform="matrix(117.6471 0 0 -117.6471 48050.5938 81877.2188)">
				<stop  offset="0" style="stop-color:#FFCC05"/>
				<stop  offset="0.5" style="stop-color:#EC1968"/>
				<stop  offset="1" style="stop-color:#B8529E"/>
			</linearGradient>
			<rect x="-2" y="65.1" class="st3" width="38.7" height="50.9"/>
		</g>
		<g>
			<defs>
				<path id="SVGID_51_" d="M85.5,90.5c0-12.9,10.5-23.4,23.4-23.4c12.9,0,23.4,10.5,23.4,23.4c0,12.9-10.5,23.4-23.4,23.4
					C96,113.9,85.5,103.4,85.5,90.5 M83.5,90.5c0,14.1,11.4,25.4,25.4,25.4c14.1,0,25.4-11.4,25.4-25.4S123,65.1,108.9,65.1
					C94.9,65.1,83.5,76.4,83.5,90.5"/>
			</defs>
			<clipPath id="SVGID_13_">
				<use xlink:href="#SVGID_51_"  style="overflow:visible;"/>
			</clipPath>
			
				<linearGradient id="SVGID_15_" gradientUnits="userSpaceOnUse" x1="-409.6404" y1="695.187" x2="-409.2079" y2="695.187" gradientTransform="matrix(117.6471 0 0 -117.6471 48276.4766 81877.2188)">
				<stop  offset="0" style="stop-color:#FFCC05"/>
				<stop  offset="0.5" style="stop-color:#EC1968"/>
				<stop  offset="1" style="stop-color:#B8529E"/>
			</linearGradient>
			<rect x="83.5" y="65.1" style="clip-path:url(#SVGID_13_);fill:url(#SVGID_15_);" width="50.9" height="50.9"/>
		</g>
	</g>
	<use xlink:href="#SVGID_40_"  style="overflow:visible;fill:none;stroke:#FFFFFF;stroke-miterlimit:10;"/>
</g>
</svg>
