<?xml version="1.0" encoding="utf-8"?>
<!-- Generator: Adobe Illustrator 23.0.0, SVG Export Plug-In . SVG Version: 6.00 Build 0)  -->
<svg version="1.1" id="Layer_1" xmlns="http://www.w3.org/2000/svg" xmlns:xlink="http://www.w3.org/1999/xlink" x="0px" y="0px"
	 viewBox="0 0 168 172" style="enable-background:new 0 0 168 172;" xml:space="preserve">
<style type="text/css">
	.st0{clip-path:url(#SVGID_2_);}
	.st1{clip-path:url(#SVGID_4_);fill:url(#SVGID_5_);}
	.st2{clip-path:url(#SVGID_7_);fill:url(#SVGID_8_);}
	.st3{clip-path:url(#SVGID_10_);fill:url(#SVGID_11_);}
	.st4{clip-path:url(#SVGID_13_);}
	.st5{clip-path:url(#SVGID_15_);fill:url(#SVGID_16_);}
	.st6{opacity:0.1;clip-path:url(#SVGID_13_);}
	.st7{opacity:0.1;}
	.st8{clip-path:url(#SVGID_18_);fill:#FFFFFF;}
	.st9{clip-path:url(#SVGID_20_);fill:#FFFFFF;}
	.st10{clip-path:url(#SVGID_22_);fill:#FFFFFF;}
	.st11{clip-path:url(#SVGID_24_);fill:#FFFFFF;}
	.st12{opacity:0.1;clip-path:url(#SVGID_26_);}
	.st13{clip-path:url(#SVGID_28_);fill:#FFFFFF;}
	.st14{clip-path:url(#SVGID_26_);}
	.st15{clip-path:url(#SVGID_30_);fill:url(#SVGID_31_);}
	.st16{clip-path:url(#SVGID_33_);}
	.st17{clip-path:url(#SVGID_35_);fill:url(#SVGID_36_);}
	.st18{clip-path:url(#SVGID_38_);fill:url(#SVGID_39_);}
	.st19{clip-path:url(#SVGID_41_);}
	.st20{clip-path:url(#SVGID_43_);fill:url(#SVGID_44_);}
	.st21{clip-path:url(#SVGID_46_);fill:url(#SVGID_47_);}
	.st22{clip-path:url(#SVGID_49_);fill:url(#SVGID_50_);}
	.st23{clip-path:url(#SVGID_52_);fill:url(#SVGID_53_);}
	.st24{clip-path:url(#SVGID_55_);}
	.st25{opacity:0.15;clip-path:url(#SVGID_57_);}
	.st26{clip-path:url(#SVGID_59_);fill:#FFFFFF;}
	.st27{clip-path:url(#SVGID_57_);fill:#FFFFFF;}
	.st28{clip-path:url(#SVGID_61_);}
	.st29{clip-path:url(#SVGID_63_);}
	.st30{clip-path:url(#SVGID_65_);fill:url(#SVGID_66_);}
	.st31{clip-path:url(#SVGID_68_);fill:url(#SVGID_69_);}
	.st32{clip-path:url(#SVGID_71_);fill:url(#SVGID_72_);}
	.st33{clip-path:url(#SVGID_74_);fill:url(#SVGID_75_);}
	.st34{clip-path:url(#SVGID_77_);fill:url(#SVGID_78_);}
	.st35{clip-path:url(#SVGID_80_);fill:url(#SVGID_81_);}
	.st36{clip-path:url(#SVGID_83_);fill:url(#SVGID_84_);}
	.st37{clip-path:url(#SVGID_86_);fill:url(#SVGID_87_);}
	.st38{clip-path:url(#SVGID_89_);fill:url(#SVGID_90_);}
</style>
<g>
	<defs>
		<circle id="SVGID_25_" cx="85.5" cy="87.5" r="77"/>
	</defs>
	<clipPath id="SVGID_2_">
		<use xlink:href="#SVGID_25_"  style="overflow:visible;"/>
	</clipPath>
	<g style="opacity:0.1;clip-path:url(#SVGID_2_);">
		<g>
			<defs>
				<rect id="SVGID_27_" x="-109.6" y="-208.2" width="389.6" height="389.6"/>
			</defs>
			<clipPath id="SVGID_4_">
				<use xlink:href="#SVGID_27_"  style="overflow:visible;"/>
			</clipPath>
			<path style="clip-path:url(#SVGID_4_);fill:#FFFFFF;" d="M85.2-156.3c-78.9,0-142.9,64-142.9,142.9c0,78.9,64,142.9,142.9,142.9
				s142.9-64,142.9-142.9C228.1-92.3,164.1-156.3,85.2-156.3 M85.2,126.8C7.7,126.8-55.1,64-55.1-13.4S7.7-153.7,85.2-153.7
				S225.5-90.9,225.5-13.4S162.7,126.8,85.2,126.8"/>
			<path style="clip-path:url(#SVGID_4_);fill:#FFFFFF;" d="M85.2-169.3c-86.1,0-155.8,69.8-155.8,155.8
				c0,86.1,69.8,155.8,155.8,155.8S241,72.6,241-13.4C241-99.5,171.3-169.3,85.2-169.3 M85.2,139.8C0.6,139.8-68.1,71.2-68.1-13.4
				c0-84.6,68.6-153.2,153.2-153.2S238.4-98.1,238.4-13.4C238.4,71.2,169.8,139.8,85.2,139.8"/>
			<path style="clip-path:url(#SVGID_4_);fill:#FFFFFF;" d="M85.2-182.3C-8-182.3-83.6-106.7-83.6-13.4S-8,155.4,85.2,155.4
				S254,79.8,254-13.4S178.4-182.3,85.2-182.3 M85.2,152.8C-6.6,152.8-81,78.4-81-13.4S-6.6-179.7,85.2-179.7
				s166.2,74.4,166.2,166.2S177,152.8,85.2,152.8"/>
			<path style="clip-path:url(#SVGID_4_);fill:#FFFFFF;" d="M85.2-195.2c-100.4,0-181.8,81.4-181.8,181.8
				c0,100.4,81.4,181.8,181.8,181.8S267,87,267-13.4C267-113.8,185.6-195.2,85.2-195.2 M85.2,165.8C-13.8,165.8-94,85.6-94-13.4
				s80.2-179.2,179.2-179.2s179.2,80.2,179.2,179.2S184.2,165.8,85.2,165.8"/>
			<path style="clip-path:url(#SVGID_4_);fill:#FFFFFF;" d="M85.2-208.2c-107.6,0-194.8,87.2-194.8,194.8
				c0,107.6,87.2,194.8,194.8,194.8S280,94.2,280-13.4C280-121,192.8-208.2,85.2-208.2 M85.2,178.8C-21,178.8-107,92.7-107-13.4
				c0-106.2,86.1-192.2,192.2-192.2s192.2,86.1,192.2,192.2C277.4,92.7,191.3,178.8,85.2,178.8"/>
		</g>
	</g>
	<g class="st0">
		<defs>
			<path id="SVGID_29_" d="M185.7,62.4v-4.6c-19.9,34.5-57.2,57.8-99.9,57.8S5.9,92.4-14,57.9v4.6C6.7,95.8,43.7,118,85.9,118
				C128,118,165,95.8,185.7,62.4"/>
		</defs>
		<clipPath id="SVGID_5_">
			<use xlink:href="#SVGID_29_"  style="overflow:visible;"/>
		</clipPath>
		
			<linearGradient id="SVGID_7_" gradientUnits="userSpaceOnUse" x1="-863.7252" y1="1041.3983" x2="-863.2259" y2="1041.3983" gradientTransform="matrix(0 -470.5882 -470.5882 0 490155.625 -406340.875)">
			<stop  offset="0" style="stop-color:#FFCC05"/>
			<stop  offset="0.5" style="stop-color:#EC1968"/>
			<stop  offset="1" style="stop-color:#B8529E"/>
		</linearGradient>
		<rect x="-14" y="57.9" style="clip-path:url(#SVGID_5_);fill:url(#SVGID_7_);" width="199.7" height="60.1"/>
	</g>
	<use xlink:href="#SVGID_25_"  style="overflow:visible;fill:none;stroke:#FFFFFF;stroke-miterlimit:10;"/>
</g>
</svg>
