<?xml version="1.0" encoding="utf-8"?>
<!-- Generator: Adobe Illustrator 23.0.0, SVG Export Plug-In . SVG Version: 6.00 Build 0)  -->
<svg version="1.1" id="Layer_1" xmlns="http://www.w3.org/2000/svg" xmlns:xlink="http://www.w3.org/1999/xlink" x="0px" y="0px"
	 viewBox="0 0 168 172" style="enable-background:new 0 0 168 172;" xml:space="preserve">
<style type="text/css">
	.st0{clip-path:url(#SVGID_2_);}
	.st1{clip-path:url(#SVGID_4_);fill:url(#SVGID_5_);}
	.st2{clip-path:url(#SVGID_7_);fill:url(#SVGID_8_);}
	.st3{clip-path:url(#SVGID_10_);fill:url(#SVGID_11_);}
	.st4{clip-path:url(#SVGID_13_);}
	.st5{clip-path:url(#SVGID_15_);fill:url(#SVGID_16_);}
	.st6{opacity:0.1;clip-path:url(#SVGID_13_);}
	.st7{opacity:0.1;}
	.st8{clip-path:url(#SVGID_18_);fill:#FFFFFF;}
	.st9{clip-path:url(#SVGID_20_);fill:#FFFFFF;}
	.st10{clip-path:url(#SVGID_22_);fill:#FFFFFF;}
	.st11{clip-path:url(#SVGID_24_);fill:#FFFFFF;}
	.st12{opacity:0.1;clip-path:url(#SVGID_26_);}
	.st13{clip-path:url(#SVGID_28_);fill:#FFFFFF;}
	.st14{clip-path:url(#SVGID_26_);}
	.st15{clip-path:url(#SVGID_30_);fill:url(#SVGID_31_);}
	.st16{clip-path:url(#SVGID_33_);}
	.st17{clip-path:url(#SVGID_35_);fill:url(#SVGID_36_);}
	.st18{clip-path:url(#SVGID_38_);fill:url(#SVGID_39_);}
	.st19{clip-path:url(#SVGID_41_);}
	.st20{clip-path:url(#SVGID_43_);fill:url(#SVGID_44_);}
	.st21{clip-path:url(#SVGID_46_);fill:url(#SVGID_47_);}
	.st22{clip-path:url(#SVGID_49_);fill:url(#SVGID_50_);}
	.st23{clip-path:url(#SVGID_52_);fill:url(#SVGID_53_);}
	.st24{clip-path:url(#SVGID_55_);}
	.st25{opacity:0.15;clip-path:url(#SVGID_57_);}
	.st26{clip-path:url(#SVGID_59_);fill:#FFFFFF;}
	.st27{clip-path:url(#SVGID_57_);fill:#FFFFFF;}
	.st28{clip-path:url(#SVGID_61_);}
	.st29{clip-path:url(#SVGID_63_);}
	.st30{clip-path:url(#SVGID_65_);fill:url(#SVGID_66_);}
	.st31{clip-path:url(#SVGID_68_);fill:url(#SVGID_69_);}
	.st32{clip-path:url(#SVGID_71_);fill:url(#SVGID_72_);}
	.st33{clip-path:url(#SVGID_74_);fill:url(#SVGID_75_);}
	.st34{clip-path:url(#SVGID_77_);fill:url(#SVGID_78_);}
	.st35{clip-path:url(#SVGID_80_);fill:url(#SVGID_81_);}
	.st36{clip-path:url(#SVGID_83_);fill:url(#SVGID_84_);}
	.st37{clip-path:url(#SVGID_86_);fill:url(#SVGID_87_);}
	.st38{clip-path:url(#SVGID_89_);fill:url(#SVGID_90_);}
</style>
<g>
	<defs>
		<circle id="SVGID_32_" cx="82.5" cy="87.5" r="77"/>
	</defs>
	<clipPath id="SVGID_2_">
		<use xlink:href="#SVGID_32_"  style="overflow:visible;"/>
	</clipPath>
	<g class="st0">
		<g>
			<defs>
				<path id="SVGID_34_" d="M82.5,163.6c-20.6,0-37.3-16.7-37.3-37.3c0-20.6,16.7-37.3,37.3-37.3c20.6,0,37.3,16.7,37.3,37.3
					C119.8,147,103.1,163.6,82.5,163.6 M82.5,166.9c22.4,0,40.5-18.1,40.5-40.5c0-22.4-18.1-40.5-40.5-40.5S42,104,42,126.4
					C42,148.7,60.1,166.9,82.5,166.9"/>
			</defs>
			<clipPath id="SVGID_4_">
				<use xlink:href="#SVGID_34_"  style="overflow:visible;"/>
			</clipPath>
			
				<linearGradient id="SVGID_5_" gradientUnits="userSpaceOnUse" x1="-1147.7085" y1="1038.838" x2="-1147.02" y2="1038.838" gradientTransform="matrix(-7.000000e-15 117.6471 117.6471 7.000000e-15 -122133.75 135110.4219)">
				<stop  offset="0" style="stop-color:#FFCC05"/>
				<stop  offset="0.5" style="stop-color:#EC1968"/>
				<stop  offset="1" style="stop-color:#B8529E"/>
			</linearGradient>
			<rect x="42" y="85.9" class="st1" width="81" height="81"/>
		</g>
		<g>
			<defs>
				<path id="SVGID_37_" d="M82.5,85.9c-20.6,0-37.3-16.7-37.3-37.3c0-20.6,16.7-37.3,37.3-37.3c20.6,0,37.3,16.7,37.3,37.3
					C119.8,69.2,103.1,85.9,82.5,85.9 M82.5,89.1c22.4,0,40.5-18.1,40.5-40.5c0-22.4-18.1-40.5-40.5-40.5S42,26.3,42,48.6
					C42,71,60.1,89.1,82.5,89.1"/>
			</defs>
			<clipPath id="SVGID_7_">
				<use xlink:href="#SVGID_37_"  style="overflow:visible;"/>
			</clipPath>
			
				<linearGradient id="SVGID_8_" gradientUnits="userSpaceOnUse" x1="-1154.2791" y1="1045.162" x2="-1153.5905" y2="1045.162" gradientTransform="matrix(7.000000e-15 -117.6471 -117.6471 -7.000000e-15 123042.75 -135708.4219)">
				<stop  offset="0" style="stop-color:#FFCC05"/>
				<stop  offset="0.5" style="stop-color:#EC1968"/>
				<stop  offset="1" style="stop-color:#B8529E"/>
			</linearGradient>
			<rect x="42" y="8.1" class="st2" width="81" height="81"/>
		</g>
	</g>
	<use xlink:href="#SVGID_32_"  style="overflow:visible;fill:none;stroke:#FFFFFF;stroke-miterlimit:10;"/>
</g>
</svg>
